<svg width="94" height="94" viewBox="0 0 94 94" fill="none" xmlns="http://www.w3.org/2000/svg">
<path d="M45.0761 0.361537C44.3987 0.837418 47.0982 5.44194 50.8711 12.9574C53.0643 17.3094 54.9472 21.811 56.5056 26.4285C58.3674 31.9809 59.4367 37.7682 59.6818 43.6194C59.8773 49.4177 59.0092 55.2029 57.1205 60.6886C55.5858 65.2805 53.6291 69.7204 51.2755 73.9515C49.5767 76.9848 47.9956 79.4523 46.769 81.3499C46.6766 80.4581 46.5784 79.585 46.47 78.753C46.1895 76.6002 45.8592 74.6664 45.5005 73.0476C44.7831 69.81 43.9517 67.8323 43.1767 67.882C42.4016 67.9316 41.8295 69.9992 41.5311 73.3019C41.3819 74.9532 41.3011 76.9133 41.2976 79.0844C41.2959 80.1699 41.3134 81.3081 41.3514 82.4869C41.3751 83.076 41.3993 83.675 41.4238 84.2839L41.4718 85.2022C41.4863 85.3936 41.4747 85.406 41.5183 85.8324C41.5533 86.1314 41.6243 86.4251 41.7297 86.7071C41.9108 87.1936 42.2048 87.6301 42.5875 87.9808C42.9702 88.3315 43.4307 88.5863 43.9311 88.7244C44.2515 88.8136 44.5828 88.8581 44.9154 88.8567C45.1125 88.8565 45.3093 88.8433 45.5046 88.8173L45.8101 88.7715C46.1887 88.7105 46.5549 88.6354 46.9078 88.5505C47.5706 88.3867 48.2244 88.1883 48.8664 87.9559C50.0762 87.5171 51.0784 87.0873 52.0885 86.6602C54.0839 85.8046 55.8549 84.9608 57.3151 84.1753C60.2355 82.6044 61.9125 81.2665 61.6539 80.5342C61.3953 79.8018 59.2501 79.8136 55.9907 80.4248C54.3611 80.7304 52.4529 81.1858 50.3627 81.7729C50.1488 81.836 49.9239 81.9021 49.7056 81.9664C51.4915 80.1313 53.1381 78.1658 54.6317 76.086C57.6519 71.8662 60.1269 67.2819 61.998 62.4418C64.4001 56.4033 65.5257 49.9329 65.3038 43.438C65.0471 37.014 63.7236 30.6775 61.3875 24.6879C59.5164 19.8861 57.149 15.2929 54.3239 10.9828C49.5055 3.70195 45.6616 -0.0604452 45.0761 0.361537Z" fill="#468E0D"/>
</svg>
