<svg width="87" height="96" viewBox="0 0 87 96" fill="none" xmlns="http://www.w3.org/2000/svg">
<path d="M39.7487 5.26397C39.3993 4.93634 39.0498 4.69607 38.7222 4.52134C38.3945 4.36844 38.0232 4.28107 37.6082 4.28107C37.1277 4.28107 36.7782 4.39028 36.5379 4.58686C36.2977 4.78344 36.1666 5.11108 36.1666 5.54792C36.1666 5.85371 36.2977 6.13766 36.5598 6.33424C36.8219 6.55266 37.1277 6.74924 37.5208 6.94582C37.914 7.1424 38.329 7.33898 38.7658 7.5574C39.2027 7.77582 39.6177 8.01609 40.0108 8.32188C40.404 8.62767 40.7098 8.97715 40.9719 9.41399C41.234 9.85083 41.3651 10.375 41.3651 10.9866C41.3651 11.9258 41.103 12.734 40.6006 13.4111C40.0982 14.0882 39.3119 14.5251 38.3072 14.7653V16.8185H36.4069V14.8527C35.839 14.7872 35.2274 14.6343 34.594 14.3722C33.9606 14.1101 33.4145 13.7824 32.9558 13.3674L34.2227 11.4235C34.725 11.7948 35.2056 12.0787 35.6424 12.2753C36.1011 12.4719 36.5598 12.5593 37.0185 12.5593C37.5645 12.5593 37.9795 12.4501 38.2198 12.2316C38.4819 12.0132 38.6129 11.6637 38.6129 11.2051C38.6129 10.8556 38.4819 10.5716 38.2198 10.3314C37.9577 10.0911 37.6519 9.87268 37.2587 9.65425C36.8656 9.43583 36.4506 9.21741 36.0137 8.99899C35.5769 8.78057 35.1619 8.51846 34.7687 8.21267C34.3756 7.90688 34.0698 7.5574 33.8077 7.1424C33.5455 6.7274 33.4145 6.24687 33.4145 5.65713C33.4145 4.69607 33.6766 3.88791 34.2008 3.25449C34.725 2.62106 35.4677 2.20606 36.385 2.03132V0H38.2853V1.98764C38.9187 2.07501 39.4648 2.27159 39.9453 2.55554C40.4258 2.83949 40.8408 3.18896 41.234 3.60396L39.7487 5.26397Z" fill="#333B41"/>
<path fill-rule="evenodd" clip-rule="evenodd" d="M86.7749 76.0006L83.1812 73.7891L75.1644 88.164L79.0346 90.0991L86.7749 76.0006Z" fill="#333B41"/>
<path fill-rule="evenodd" clip-rule="evenodd" d="M81.2456 73.2357C71.8466 62.4546 63.5534 65.219 52.4958 72.4064C42.8203 78.7646 35.6329 74.3415 28.4454 77.3824C26.7868 78.2117 24.2988 80.1468 26.5103 82.0819C27.6161 82.9112 32.0391 83.7405 33.4213 83.4641C40.8852 81.8054 43.0968 85.1227 54.4308 82.9112C51.1136 85.3991 40.3324 83.7405 33.6978 84.5698C28.4454 85.6756 19.8757 81.529 26.7868 76.8295C23.7459 75.4473 20.9815 74.6179 17.6642 74.3415C14.3469 71.8535 9.09456 68.8127 6.33015 67.7069C4.11862 66.3247 -1.41019 66.8776 2.18354 70.4713C5.77727 73.7886 15.4527 81.2525 17.3878 82.3583C25.1281 87.0578 32.3156 90.3751 39.7795 94.5217C39.7795 94.5217 42.2675 95.9039 47.2434 93.9688C50.8371 92.3102 66.8707 83.4641 70.7409 84.8463C72.9524 85.6756 74.0581 86.2285 74.0581 86.2285L81.2456 73.2357Z" stroke="#333B41" stroke-width="1.5"/>
<path fill-rule="evenodd" clip-rule="evenodd" d="M34.5279 72.406C35.0808 71.3003 35.6337 70.471 36.463 70.1945C37.2924 69.9181 37.5688 70.471 38.1217 71.0238C38.6746 71.8532 38.951 72.1296 39.7803 72.6825C40.0568 72.9589 40.6096 72.9589 40.8861 72.9589L40.3332 72.6825C39.5039 72.1296 38.951 71.5767 39.2274 70.471C39.2274 70.1945 38.951 69.6416 39.5039 69.6416C40.0568 69.9181 40.8861 70.471 41.7154 70.471C41.7154 70.471 42.5447 70.7474 42.2683 70.471C42.2683 70.1945 41.7154 69.9181 41.439 69.6416C39.7803 68.2594 39.7803 67.983 39.7803 66.0479C40.0568 63.2835 38.951 61.072 37.0159 59.1369C32.5929 54.7138 34.5279 48.6321 37.8452 42.8269C40.8861 37.5745 43.6505 36.7452 40.6096 30.387C39.5039 27.6226 37.5688 24.8582 37.2924 23.1996C37.2924 22.6467 37.2924 22.9231 37.2924 23.1996C37.0159 24.8582 38.1217 27.3462 39.2274 29.8342C41.7154 35.363 41.1625 35.9159 37.5688 40.8918C33.6986 45.8677 30.9342 51.1201 32.5929 56.6489C33.6986 60.5191 39.2274 64.3893 36.463 66.8772C35.0808 67.983 33.1457 70.7474 32.8693 72.406C32.5929 73.2354 32.5929 73.2354 32.3164 73.7882C32.04 74.0647 32.3164 74.0647 32.5929 74.0647C33.9751 73.7882 33.9751 73.2354 34.5279 72.406Z" fill="#333B41"/>
<path d="M52.8429 46.529L53.755 46.2684L53.7981 47.2161C53.9459 50.4683 52.5534 54.3664 50.2642 57.4425C49.0772 59.0375 47.6155 60.4545 45.9547 61.4487C47.0478 61.074 48.2508 60.3838 49.4679 59.1695C52.7026 55.6792 53.5945 51.2419 54.6307 45.5536C53.6652 45.6402 52.7139 45.8564 51.737 46.1392C51.096 46.3247 50.4522 46.5364 49.786 46.757C49.7457 46.7704 49.7052 46.7838 49.6648 46.7972C49.0473 47.0018 48.4107 47.2127 47.7579 47.4089C42.6293 49.3021 39.8538 51.6595 38.8454 54.3645C38.5951 55.654 38.63 56.8192 39.0684 57.696L39.1052 57.7696L39.1251 57.8495C39.2985 58.5427 40 59.1847 40.9413 59.7019C41.9925 58.713 42.7253 57.8296 43.446 56.9124C43.2707 57.0928 43.1068 57.265 42.9519 57.428C42.8261 57.5602 42.7062 57.6863 42.5907 57.8057C42.3944 58.0085 42.2043 58.1985 42.0295 58.3497C41.8721 58.4858 41.6524 58.6584 41.3991 58.7429L41.2102 58.8059L41.0149 58.7668C40.1201 58.5879 39.4476 58.0935 39.1719 57.2664C38.9248 56.5252 39.0477 55.6546 39.3357 54.7804C39.83 52.8473 41.3457 51.3363 43.5888 50.0545C45.8467 48.7643 48.9586 47.6388 52.8429 46.529Z" stroke="#333B41" stroke-width="1.5"/>
<path d="M26.1343 28.3643C24.658 27.8492 23.3721 27.4005 21.9334 27.1376C21.9827 27.3788 22.0312 27.6174 22.0791 27.8534C22.2096 28.4962 22.3362 29.1198 22.4654 29.7246C22.4295 29.2771 22.4219 28.8382 22.4443 28.4123L22.4941 27.4666L23.4033 27.7318C26.7358 28.7037 29.4285 29.6903 31.4055 30.8047C33.1695 31.7989 34.4572 32.9473 35.063 34.3665C34.2231 32.1059 32.012 30.1686 27.6811 28.8948L27.6683 28.8911L27.6556 28.8868C27.1201 28.7083 26.617 28.5328 26.1343 28.3643ZM25.4594 37.3306C24.8747 36.544 24.3596 35.692 23.9278 34.809C24.5336 36.2532 25.3328 37.5474 26.488 38.7026L26.4978 38.7124L26.5073 38.7226C27.1437 39.4079 27.7827 39.8995 28.3998 40.2466C27.2793 39.4579 26.2883 38.4458 25.4594 37.3306ZM35.2387 37.5153C35.6732 36.6464 35.6857 35.8128 35.2762 34.9459C35.5593 35.7323 35.5713 36.5125 35.2858 37.1786C34.9797 37.893 34.3673 38.3874 33.6035 38.5784L33.3916 38.6313L33.1844 38.5623C33.0999 38.5341 33.019 38.4969 32.9429 38.4549C33.117 38.6533 33.3003 38.8554 33.4964 39.0632L33.5161 39.0582C34.4751 38.8185 34.9985 38.4027 35.182 37.6688L35.2019 37.589L35.2387 37.5153Z" stroke="#333B41" stroke-width="1.5"/>
<path d="M50.5566 28.6732C50.2311 29.0618 49.8833 29.4321 49.5153 29.7769C49.6818 29.6372 49.8494 29.4842 50.0175 29.3168C50.2081 29.1065 50.3874 28.892 50.5566 28.6732ZM53.7653 19.4627C53.768 19.448 53.7707 19.4334 53.7734 19.4187C52.2418 19.7171 50.6647 20.1954 48.8887 20.8614L48.8887 20.8615L48.8776 20.8654C45.4003 22.1073 43.4897 23.5076 42.6388 25.3816C43.2182 24.192 44.2605 23.2206 45.7292 22.3769C47.4375 21.3955 49.792 20.5463 52.851 19.712L53.7653 19.4627ZM43.6887 29.1639C43.3879 29.0636 43.128 28.9102 42.9149 28.7121C43.1031 29.0573 43.3626 29.3412 43.7254 29.5207C43.8308 29.4111 43.9321 29.3035 44.03 29.1976C43.996 29.2007 43.9612 29.2024 43.9258 29.2024H43.8041L43.6887 29.1639Z" stroke="#333B41" stroke-width="1.5"/>
</svg>
