<svg width="26" height="32" viewBox="0 0 26 32" fill="none" xmlns="http://www.w3.org/2000/svg">
<path d="M0 12.777C0 5.72 5.72 0 12.776 0C19.833 0 25.553 5.72 25.553 12.777C25.553 14.04 25.367 15.259 25.026 16.414C23.207 23.771 12.719 32 12.719 32C12.719 32 0.87 22.709 0.173 15.042L0.204 15.036C0.072 14.304 0 13.549 0 12.777ZM12.602 15.623C15.489 15.623 17.829 13.282 17.829 10.395C17.829 7.508 15.489 5.168 12.602 5.168C9.716 5.168 7.376 7.508 7.376 10.395C7.376 13.282 9.716 15.623 12.602 15.623Z" fill="#4B9200"/>
</svg>
